<svg width="19" height="21" viewBox="0 0 19 21" fill="none" xmlns="http://www.w3.org/2000/svg">
<path fill-rule="evenodd" clip-rule="evenodd" d="M6.14163 0.309985C0.234627 1.80949 -1.83588 7.903 1.81112 13.0555C2.49262 14.018 2.63612 14.9215 2.43612 16.9835C2.24562 18.9465 2.36161 19.779 2.87011 20.101C3.70761 20.6315 11.3351 20.691 12.1211 20.173C12.4281 19.971 12.8366 19.299 13.0301 18.6805C13.2901 17.8465 13.7636 17.5555 14.8596 17.5555C16.0126 17.5555 16.4541 17.2525 16.8626 16.1805C17.1506 15.424 17.2721 14.2315 17.1326 13.5305C16.9521 12.625 17.1591 12.0805 17.8461 11.651C19.0611 10.8925 19.0536 10.1405 17.8136 8.5555C17.2756 7.868 16.8301 6.8555 16.8226 6.3055C16.8051 4.9545 15.1231 2.28049 13.7126 1.36049C11.7241 0.0639918 8.74063 -0.350015 6.14163 0.309985ZM14.7976 4.52599C14.5121 3.99199 13.7291 3.19551 13.0571 2.75551C9.43962 0.385011 4.28012 1.35199 2.00262 4.82799C1.02612 6.31849 1.33312 6.848 2.73812 6.096C4.13412 5.349 6.81662 5.4495 8.31362 6.3055C11.1331 7.917 15.9111 6.60599 14.7976 4.52599Z" fill="#2859B0"/>
</svg>
