<svg width="26" height="28" viewBox="0 0 26 28" fill="none" xmlns="http://www.w3.org/2000/svg">
<path d="M1.50021 25.4944C1.50013 25.4943 1.50005 25.4942 1.49998 25.4941C1.50005 25.4942 1.50013 25.4943 1.50021 25.4944ZM1.50021 25.4944L0.7931 26.2015L1.50048 25.4947C1.50039 25.4946 1.5003 25.4945 1.50021 25.4944ZM1.0076 17.729C1.0076 17.1255 1.00539 16.5723 1.00336 16.0623C0.997744 14.6549 0.993443 13.577 1.04046 12.6825C1.10348 11.4836 1.25576 10.7403 1.56177 10.1071C1.87039 9.46855 2.37857 8.85227 3.31891 7.98652C4.01667 7.3441 4.89975 6.61008 6.04773 5.65586C6.46251 5.31109 6.91186 4.93759 7.39955 4.52927C8.87995 3.28982 10.0758 2.37668 10.9888 1.77922C11.4461 1.48002 11.8125 1.27319 12.0942 1.14464C12.2826 1.0587 12.3991 1.02376 12.4577 1.00959C12.532 1.038 12.6423 1.08826 12.7923 1.16735C13.0946 1.32677 13.4922 1.56828 13.9669 1.88176C14.9125 2.50627 16.1013 3.37447 17.3312 4.33183C19.806 6.25811 22.3251 8.45003 23.3513 9.67311C23.3558 9.68182 23.3783 9.72299 23.4118 9.81491C23.4598 9.94668 23.5124 10.1323 23.5659 10.3764C23.6729 10.864 23.768 11.5132 23.8473 12.2856C24.0053 13.8262 24.0918 15.775 24.1019 17.7281C24.1121 19.6816 24.0458 21.613 23.9039 23.1195C23.8327 23.8754 23.7446 24.5008 23.6441 24.9595C23.5969 25.1753 23.551 25.3346 23.5108 25.4442C23.5064 25.4455 23.5019 25.4468 23.4973 25.4482C23.3358 25.4955 23.0952 25.5472 22.7692 25.5991C22.1214 25.7023 21.2312 25.7916 20.1633 25.8642C18.0334 26.0089 15.2756 26.082 12.5076 26.082C9.73965 26.082 6.98181 26.0089 4.85186 25.8642C3.78403 25.7916 2.89383 25.7023 2.24601 25.5991C1.92003 25.5472 1.67939 25.4955 1.5179 25.4482C1.49053 25.4402 1.46757 25.4329 1.44861 25.4265C1.37179 25.2985 1.24257 24.958 1.15383 24.0009C1.04324 22.808 1.0076 20.8989 1.0076 17.729ZM12.402 0.99041C12.3995 0.989854 12.3982 0.9895 12.3982 0.989463C12.3982 0.989426 12.3994 0.989704 12.402 0.99041ZM23.6351 25.4005C23.6351 25.4005 23.635 25.4005 23.635 25.4005L23.6351 25.4005ZM1.37428 25.3976C1.37437 25.3976 1.37644 25.3985 1.3802 25.4006L1.38011 25.4005C1.37604 25.3986 1.37419 25.3976 1.37428 25.3976Z" stroke="#7C8699" stroke-width="2"/>
</svg>
