<svg width="27" height="28" viewBox="0 0 27 28" fill="none" xmlns="http://www.w3.org/2000/svg">
<path fill-rule="evenodd" clip-rule="evenodd" d="M9.36472 0.258257C9.17072 0.452257 9.01172 1.23277 9.01172 1.99227C9.01172 3.79927 7.68723 5.12426 6.31223 4.69325C3.28522 3.74475 3.13323 3.78526 1.55173 5.96926C-0.324773 8.55976 -0.411281 10.2183 1.26172 11.5343C1.95122 12.0763 2.51172 13.0358 2.51172 13.6738C2.51172 14.3553 1.99872 15.1658 1.26172 15.6488C0.533219 16.1263 0.0117188 16.9438 0.0117188 17.6083C0.0117188 18.6823 2.66772 23.4448 3.26672 23.4448C3.41922 23.4448 4.30321 23.1278 5.23071 22.7398C6.68521 22.1323 7.05822 22.1333 7.93372 22.7463C8.51422 23.1533 9.01621 24.1507 9.10571 25.0763C9.24171 26.4853 9.50422 26.7548 11.1367 27.1578C12.2872 27.4423 13.7362 27.4423 14.8867 27.1578C16.5192 26.7548 16.7817 26.4853 16.9177 25.0763C17.0072 24.1507 17.5092 23.1533 18.0897 22.7463C18.9652 22.1333 19.3382 22.1323 20.7927 22.7398C21.7202 23.1278 22.6042 23.4448 22.7567 23.4448C23.3557 23.4448 26.0117 18.6823 26.0117 17.6083C26.0117 16.9438 25.4902 16.1263 24.7617 15.6488C23.1247 14.5763 23.1492 12.8023 24.8187 11.4893C25.9162 10.6258 26.0762 10.1953 25.8152 8.80477C25.6442 7.89377 24.8572 6.37331 24.0662 5.42531C22.6722 3.75531 22.5732 3.72179 20.8842 4.33229C18.1177 5.33279 17.4407 4.79928 16.9007 1.19478C16.7697 0.320281 16.3097 0.176761 13.2347 0.0497612C11.3007 -0.0297388 9.55922 0.0642573 9.36472 0.258257ZM11.4917 17.9368C15.9192 19.7703 19.6357 13.7053 16.1937 10.2628C15.2407 9.31027 14.3587 8.94478 13.0117 8.94478C7.91372 8.94478 6.72723 15.9628 11.4917 17.9368Z" fill="#213550"/>
</svg>
