<svg width="26" height="28" viewBox="0 0 26 28" fill="none" xmlns="http://www.w3.org/2000/svg">
<path d="M8.035 2.419C7.02 2.419 6.57349 1.012 7.34399 0.241999C7.93999 -0.354501 8.744 0.205502 8.91 1.333C9.03 2.1495 8.8125 2.419 8.035 2.419Z" fill="#213550"/>
<path d="M18.535 2.419C17.52 2.419 17.0735 1.012 17.844 0.241999C18.44 -0.354501 19.244 0.205502 19.41 1.333C19.53 2.1495 19.3125 2.419 18.535 2.419Z" fill="#213550"/>
<path d="M0.0019989 8.044C0.0049989 6.5175 1.96099 3.88802 3.63499 3.16052C6.18849 2.05002 6.49901 2.2 6.50751 4.544C6.51651 7.0485 7.10001 8.17949 8.17101 7.76849C8.68501 7.57149 8.9945 6.66899 9.0965 5.07049L9.25 2.669H13.25H17.25L17.4035 5.07049C17.5055 6.66899 17.815 7.57149 18.329 7.76849C19.404 8.18099 19.9835 7.04649 19.9925 4.51049C19.9995 2.50699 20.081 2.37599 21.125 2.68749C23.1755 3.29949 24.575 4.47651 25.292 6.19201C25.6815 7.12401 26 8.11901 26 8.40301C26 8.74451 21.603 8.919 13 8.919C0.9515 8.919 -1.09873e-06 8.855 0.0019989 8.044Z" fill="#213550"/>
<path fill-rule="evenodd" clip-rule="evenodd" d="M0.979996 24.7695C0.158496 23.4225 0.0034989 22.2385 0.0019989 17.294L0 11.419H13H26L25.998 17.294C25.9965 22.2385 25.8415 23.4225 25.02 24.7695C23.313 27.57 21.981 27.919 13 27.919C4.019 27.919 2.687 27.57 0.979996 24.7695ZM20.948 14.876C21.3315 15.119 21.5075 15.6785 21.3385 16.1185C21.0885 16.7705 20.195 16.919 16.5155 16.919C12.47 16.919 12 16.8235 12 16.0025C12 15.498 12.15 14.9355 12.3335 14.7525C12.8275 14.258 20.1375 14.363 20.948 14.876ZM9.75 22.297C13.4725 22.178 13.761 22.091 13.91 21.044C14.0655 19.948 13.952 19.919 9.519 19.919C5.808 19.919 4.912 20.0665 4.6615 20.7195C4.163 22.018 5.5015 22.433 9.75 22.297Z" fill="#213550"/>
</svg>
