<svg width="30" height="27" viewBox="0 0 30 27" fill="none" xmlns="http://www.w3.org/2000/svg">
<path d="M2.35646 5.03905C3.24546 3.75555 4.76146 2.479 6.35646 1.6715C9.92896 -0.137004 14.2024 0.0755756 17.2894 2.21508C19.9169 4.03608 22.1749 8.18395 22.1749 11.189C22.1749 14.2105 19.9174 18.341 17.2579 20.186C15.3519 21.508 14.6899 21.6836 11.7579 21.6426C9.92494 21.6171 7.86244 21.5349 7.17494 21.4599C6.48744 21.3854 4.77848 21.4895 3.37648 21.692C1.22098 22.0035 0.778011 21.9286 0.500011 21.2046C0.319511 20.7341 0.33601 20.088 0.53651 19.769C0.73751 19.45 0.906963 16.4704 0.913463 13.1474C0.924463 7.32245 0.976456 7.03205 2.35646 5.03905Z" fill="#213550"/>
<path d="M23.3069 16.7156C24.4184 14.5741 24.7754 9.94407 24.0339 7.28807C23.6799 6.01957 23.7325 5.93454 24.5905 6.39354C28.4005 8.43254 30.7014 14.6736 29.1489 18.7571C28.7729 19.7461 28.7905 20.8364 29.21 22.5854C29.705 24.6484 29.6784 25.1501 29.0399 25.7881C28.4099 26.4186 27.8575 26.454 25.741 26C24.036 25.634 22.7724 25.6165 21.9044 25.947C19.3659 26.912 14.9185 26.2365 13.193 24.6235C12.5595 24.031 12.6265 23.9375 13.693 23.928C16.8425 23.9 21.3224 20.5386 23.3069 16.7156Z" fill="#213550"/>
</svg>
