<svg width="23" height="42" viewBox="0 0 23 42" fill="none" xmlns="http://www.w3.org/2000/svg">
<path d="M5.75474 26.5471L5.75474 11.3018L17.2264 11.3018L17.2264 26.5471C17.2264 29.7149 14.6584 32.283 11.4906 32.283C8.32277 32.283 5.75474 29.7149 5.75474 26.5471Z" stroke="#7B8799" stroke-width="2"/>
<rect x="9.50946" y="31.698" width="3.16981" height="10.3019" rx="1.58491" fill="#7B8799"/>
<rect x="5.54718" y="19.8113" width="2.37736" height="6.33962" rx="1.18868" transform="rotate(-90 5.54718 19.8113)" fill="#7B8799"/>
<rect x="5.54718" y="24.5659" width="2.37736" height="6.33962" rx="1.18868" transform="rotate(-90 5.54718 24.5659)" fill="#7B8799"/>
<rect x="22.1887" y="9.50952" width="3.16981" height="22.1887" rx="1.58491" transform="rotate(90 22.1887 9.50952)" fill="#7B8799"/>
<rect x="18.2264" width="3.16981" height="14.2642" rx="1.58491" transform="rotate(90 18.2264 0)" fill="#7B8799"/>
<rect x="8.13208" y="2.58496" width="5.92453" height="7.50943" stroke="#7B8799" stroke-width="2"/>
</svg>
