<svg width="26" height="28" viewBox="0 0 26 28" fill="none" xmlns="http://www.w3.org/2000/svg">
<path d="M2.34995 6.53428L2.34986 6.53441C1.44294 7.7864 1.09422 8.65338 1.06259 9.26026C1.03636 9.76345 1.22167 10.2181 1.868 10.7266L2.34995 6.53428ZM2.34995 6.53428C2.75426 5.97594 3.01967 5.62296 3.24713 5.38577M2.34995 6.53428L3.24713 5.38577M4.83307 21.7957L4.83359 21.7955C5.53818 21.5012 6.17444 21.2623 6.79008 21.2639C7.49148 21.2656 8.01549 21.5695 8.49555 21.9056L8.49607 21.906C8.96836 22.2371 9.3327 22.7436 9.58544 23.2459C9.84458 23.761 10.0316 24.3608 10.0894 24.9585L10.0894 24.9587C10.1576 25.6661 10.2455 25.7555 10.2634 25.7738L10.2641 25.7745C10.2782 25.789 10.3331 25.8392 10.5139 25.9125C10.7008 25.9883 10.9657 26.067 11.3647 26.1655L11.3651 26.1655C12.3579 26.4111 13.6421 26.4111 14.6349 26.1655L14.6353 26.1655C15.0343 26.067 15.2992 25.9883 15.4861 25.9125C15.6669 25.8392 15.7218 25.789 15.7359 25.7745L15.7366 25.7738C15.7545 25.7555 15.8424 25.6661 15.9106 24.9587L15.9106 24.9585C15.9684 24.3608 16.1554 23.761 16.4146 23.2459C16.6673 22.7436 17.0316 22.2371 17.5039 21.906L17.5044 21.9056C17.9845 21.5695 18.5085 21.2656 19.2099 21.2639C19.8256 21.2623 20.4618 21.5012 21.1664 21.7955L21.1669 21.7957C21.6175 21.9843 22.0542 22.154 22.3914 22.2751C22.4344 22.2905 22.4753 22.305 22.5139 22.3184C22.5671 22.2514 22.6275 22.1716 22.6945 22.0784C22.9978 21.6568 23.3653 21.0635 23.7238 20.4207C24.0811 19.7799 24.4158 19.1146 24.6578 18.555C24.7791 18.2744 24.8713 18.0338 24.9314 17.844C24.9795 17.6921 24.9939 17.6128 24.9982 17.5891C24.9999 17.5793 25 17.579 25 17.5868C25 17.5008 24.9589 17.3157 24.8051 17.0747C24.6575 16.8433 24.4443 16.6226 24.202 16.4637C23.1641 15.7838 22.5228 14.7806 22.5387 13.624C22.5542 12.4937 23.1946 11.4637 24.1888 10.6818C24.7256 10.2594 24.8373 10.0827 24.8772 9.97511C24.9182 9.86461 24.9489 9.65093 24.8207 8.96776C24.7612 8.65075 24.5712 8.1425 24.2734 7.56707C23.9818 7.00375 23.6257 6.45082 23.2867 6.04449C22.9309 5.61832 22.6953 5.34272 22.5047 5.15475C22.4135 5.06487 22.3496 5.01231 22.3055 4.9813C22.2843 4.96646 22.2698 4.958 22.2611 4.95341C22.2589 4.95228 22.2571 4.95137 22.2556 4.95065C22.2541 4.94991 22.2528 4.94936 22.2519 4.94897L22.2506 4.94842C22.2489 4.94825 22.2457 4.94801 22.2406 4.94794C22.2215 4.94768 22.1771 4.94985 22.0925 4.96769C21.9046 5.00729 21.6493 5.09334 21.2126 5.2512L4.83307 21.7957ZM4.83307 21.7957C4.38246 21.9843 3.94581 22.154 3.6086 22.2751C3.56555 22.2905 3.52468 22.305 3.48609 22.3184C3.43288 22.2514 3.37254 22.1716 3.3055 22.0784C3.00225 21.6568 2.6347 21.0635 2.27624 20.4207C1.91886 19.7799 1.58419 19.1146 1.34223 18.555C1.22092 18.2744 1.12872 18.0338 1.06863 17.844C1.02051 17.6921 1.00613 17.6128 1.00183 17.5891C1.00007 17.5793 1 17.579 1 17.5868C1 17.5008 1.04115 17.3157 1.19489 17.0747C1.34253 16.8433 1.55573 16.6226 1.79814 16.4637C2.72421 15.8568 3.5 14.7687 3.5 13.6523C3.5 13.0821 3.26609 12.5027 2.99701 12.0421M4.83307 21.7957L2.99701 12.0421M15.9 1.32146L15.9 1.32144C15.898 1.30814 15.8961 1.29624 15.8942 1.28564C15.8846 1.28232 15.8739 1.27876 15.8619 1.27501C15.4998 1.16194 14.7681 1.09295 13.1819 1.02743L15.9 1.32146ZM15.9 1.32146C16.0372 2.23667 16.1909 3.01694 16.4027 3.64458M15.9 1.32146L16.4027 3.64458M10.0836 1.09124C10.0337 1.33634 10 1.65433 10 1.97078C10 3.11136 9.58253 4.15774 8.87316 4.86746C8.15317 5.5878 7.10267 5.97115 6.0015 5.62602L10.0836 1.09124ZM10.0836 1.09124C10.0846 1.0864 10.0856 1.08162 10.0866 1.0769M10.0836 1.09124L10.0866 1.0769M10.0866 1.0769C10.2454 1.05831 10.4475 1.04156 10.6895 1.02851C11.3531 0.992739 12.2396 0.988703 13.1817 1.02743L10.0866 1.0769ZM3.24713 5.38577C3.45816 5.16571 3.56855 5.11936 3.63705 5.101M3.24713 5.38577L3.63705 5.101M3.63705 5.101C3.7249 5.07746 3.89838 5.06073 4.30081 5.14341M3.63705 5.101L4.30081 5.14341M4.30081 5.14341C4.70662 5.22679 5.23346 5.38536 6.0014 5.62599L4.30081 5.14341ZM2.99701 12.0421C2.71648 11.5619 2.32496 11.0859 1.86826 10.7268L2.99701 12.0421ZM16.4027 3.64458C16.6122 4.26546 16.9152 4.85134 17.427 5.25449M16.4027 3.64458L17.427 5.25449M17.427 5.25449C17.9701 5.6823 18.6035 5.79372 19.2332 5.74677M17.427 5.25449L19.2332 5.74677M19.2332 5.74677C19.8347 5.70194 20.5004 5.50876 21.2124 5.25126L19.2332 5.74677ZM22.8811 22.4349C22.8807 22.4347 22.8801 22.4346 22.8796 22.4345C22.8876 22.436 22.8917 22.437 22.8911 22.4369C22.8906 22.4369 22.8874 22.4363 22.8811 22.4349ZM15.9614 1.31381C15.9614 1.31382 15.9608 1.31353 15.9599 1.31292L15.9614 1.31381ZM11.0972 18.8391L11.0974 18.8392C13.8654 19.9855 16.3863 18.6167 17.6347 16.5793C18.88 14.547 18.9985 11.6439 16.8892 9.53423L16.8889 9.534C16.3471 8.99249 15.7821 8.5749 15.1215 8.30124C14.4608 8.02755 13.766 7.9233 13 7.9233C9.89694 7.9233 7.96367 10.0982 7.55556 12.5124C7.1488 14.9185 8.23497 17.6533 11.0972 18.8391ZM9.78288 1.12676C9.78458 1.12625 9.7873 1.1255 9.7911 1.12452C9.76804 1.13324 9.76232 1.13292 9.78288 1.12676ZM3.11886 22.4349C3.10441 22.4382 3.10629 22.4371 3.12043 22.4345C3.11988 22.4346 3.11936 22.4347 3.11886 22.4349Z" stroke="#7C8699" stroke-width="2"/>
</svg>
