<svg width="58" height="76" viewBox="0 0 58 76" fill="none" xmlns="http://www.w3.org/2000/svg">
<path d="M28.726 5.81373C26.746 6.19473 25.459 3.80073 26.369 1.42973C27.323 -1.05527 30.479 0.152732 30.479 3.00373C30.479 4.56473 29.833 5.60073 28.726 5.81373Z" fill="#79889A"/>
<path d="M13.002 14.0037C10.779 14.0037 7.459 9.65473 8.453 8.04473C8.898 7.32573 9.78398 7.35873 11.29 8.15073C15.286 10.2547 16.383 14.0037 13.002 14.0037Z" fill="#79889A"/>
<path d="M43.779 14.0037C41.434 14.0037 41.506 12.8747 44.059 9.62873C46.252 6.84173 47.979 6.94473 47.979 9.86273C47.979 12.1137 46.062 14.0037 43.779 14.0037Z" fill="#79889A"/>
<path d="M29.022 43.7007C13.724 43.7297 11.271 43.2907 12.263 40.7057C12.744 39.4527 15.368 39.2297 28.159 39.3547C36.585 39.4367 43.775 39.9127 44.136 40.4127C46.093 43.1197 43.545 43.6737 29.022 43.7007Z" fill="#79889A"/>
<path d="M26.931 52.4887C24.609 51.7517 23.652 49.1027 25.084 47.3767C26.442 45.7407 26.213 45.7617 29.414 46.9787C34.093 48.7577 31.726 54.0107 26.931 52.4887Z" fill="#79889A"/>
<path d="M40.979 65.5037C40.979 61.3147 41.471 57.9117 42.179 57.2037C43.844 55.5387 45.081 55.7257 47.979 58.0757C49.354 59.1907 52.167 61.2117 54.229 62.5657C56.292 63.9207 57.979 65.6767 57.979 66.4687C57.979 67.9297 46.911 75.0037 44.625 75.0037C41.956 75.0037 40.979 72.4577 40.979 65.5037Z" fill="#79889A"/>
<path fill-rule="evenodd" clip-rule="evenodd" d="M25.094 12.5677C19.415 14.2577 14.188 19.3237 13.363 23.9397C12.575 28.3447 10.242 31.1457 7.53302 30.9387C2.58602 30.5617 0.979004 31.0327 0.979004 32.8587C0.979004 34.5367 2.16699 34.7637 13.498 35.2537C30.105 35.9707 55.283 35.0207 56.172 33.6437C57.483 31.6127 54.743 30.0037 49.975 30.0037H45.216L42.847 23.3267C40.908 17.8597 39.845 16.2977 36.979 14.7067C31.162 11.4787 29.663 11.2087 25.094 12.5677ZM28.289 30.1797C40.814 30.3167 42.768 28.0967 36.363 21.0067C33.367 17.6907 32.103 17.0037 28.997 17.0037C24.672 17.0037 20.708 19.6937 18.369 24.2167C15.927 28.9387 17.799 30.0637 28.289 30.1797Z" fill="#79889A"/>
</svg>
