<svg width="55" height="77" viewBox="0 0 55 77" fill="none" xmlns="http://www.w3.org/2000/svg">
<path d="M24.304 5.75674C23.085 4.53874 23.015 3.80474 23.949 2.05974C25.529 -0.892262 28.398 -0.177262 28.796 3.26774C29.178 6.57874 26.571 8.02374 24.304 5.75674Z" fill="#79889A"/>
<path d="M8.404 11.5607C8.067 10.2167 8.10099 8.61574 8.47999 8.00174C9.48899 6.36974 13.401 9.21374 13.799 11.8687C14.293 15.1707 9.238 14.8827 8.404 11.5607Z" fill="#79889A"/>
<path d="M41.979 14.5037C38.761 14.5037 38.225 11.7577 40.918 9.06473C43.198 6.78473 43.843 6.63173 45.842 7.89773C48.114 9.33773 45.094 14.5037 41.979 14.5037Z" fill="#79889A"/>
<path d="M3.29603 29.9887C1.02503 30.0047 -0.693997 26.9017 0.508003 24.9567C0.870003 24.3707 2.58301 24.0287 4.31501 24.1977C9.81601 24.7327 8.89803 29.9487 3.29603 29.9887Z" fill="#79889A"/>
<path d="M49.912 30.0037C46.737 30.0037 45.326 28.1487 46.39 25.3757C46.87 24.1227 47.845 23.8827 50.621 24.3327C55.133 25.0647 55.401 25.3477 54.025 27.9177C53.275 29.3197 51.926 30.0037 49.912 30.0037Z" fill="#79889A"/>
<path d="M9.857 46.0037C7.663 46.0037 7.23999 42.1427 9.21699 40.1657C9.89799 39.4847 11.361 39.0567 12.467 39.2157C16.038 39.7267 13.624 46.0037 9.857 46.0037Z" fill="#79889A"/>
<path d="M45.413 47.0037C42.615 47.0037 38.308 41.8977 39.492 39.9827C40.521 38.3187 43.854 38.9017 44.944 40.9377C46.047 42.9987 46.357 47.0037 45.413 47.0037Z" fill="#79889A"/>
<path d="M26.065 54.0037C24.722 54.0037 22.924 49.7537 23.499 47.9407C24.35 45.2597 28.638 45.3557 29.502 48.0757C30.102 49.9667 27.762 54.0037 26.065 54.0037Z" fill="#79889A"/>
<path d="M40.435 76.6257C38.587 75.9157 38.336 60.0467 40.144 58.2387C41.031 57.3517 42.476 57.7227 46.195 59.7887C51.936 62.9787 54.979 65.5917 54.979 67.3307C54.979 69.1157 42.18 77.2947 40.435 76.6257Z" fill="#79889A"/>
<path fill-rule="evenodd" clip-rule="evenodd" d="M21.334 14.6007C15.793 17.3337 13.565 20.5357 13.55 25.7887C13.533 32.0557 15.626 35.9587 20.479 38.7057C27.602 42.7387 34.026 41.0587 38.484 33.9947C41.672 28.9457 41.661 24.4717 38.45 19.7467C34.095 13.3377 27.757 11.4327 21.334 14.6007ZM35.577 27.2657C36.086 24.7177 35.654 23.7107 32.934 21.1117C28.693 17.0577 24.83 16.9987 20.902 20.9267C17.431 24.3977 17.181 27.7197 20.11 31.4437C23.122 35.2717 26.438 36.3347 29.858 34.5667C33.489 32.6887 34.836 30.9687 35.577 27.2657Z" fill="#79889A"/>
</svg>
