<svg width="52" height="73" viewBox="0 0 52 73" fill="none" xmlns="http://www.w3.org/2000/svg">
<path fill-rule="evenodd" clip-rule="evenodd" d="M20.501 1.25375C20.272 1.94175 19.949 6.55375 19.782 11.5037C19.412 22.4967 17.862 25.0327 7.79199 31.1167C4.04499 33.3807 0.979004 35.8387 0.979004 36.5797C0.979004 38.1547 3.76096 40.8877 9.20496 44.6607C12.598 47.0117 14.109 47.3667 20.962 47.4237C28.141 47.4837 29.1949 47.2287 33.0579 44.4967C42.6779 37.6907 46.718 28.3137 44.374 18.2297C43.606 14.9247 41.9789 11.5167 40.2879 9.67375C38.7429 7.98975 36.972 6.04775 36.353 5.35975C32.505 1.08475 21.504 -1.76425 20.501 1.25375ZM31.347 8.01975C34.349 10.0457 36.6629 12.7357 38.3969 16.2157C41.4929 22.4277 41.555 24.1367 38.895 30.0037C34.93 38.7507 30.126 42.0037 21.178 42.0037C10.209 42.0037 5.17296 38.0227 11.804 34.5937C15.625 32.6177 21.5931 25.8617 23.4561 21.4037C24.2941 19.3997 24.979 15.1897 24.979 12.0487C24.979 7.11975 25.4649 5.00375 26.5959 5.00375C26.7509 5.00375 28.89 6.36075 31.347 8.01975ZM37.3349 55.7437C36.3119 56.4227 35.5229 63.8527 35.8549 69.6867C36.0739 73.5387 39.451 73.4518 45.972 69.4268C49.355 67.3398 51.9649 65.0167 51.9479 64.1117C51.9109 62.1787 44.4859 56.3998 40.9789 55.5728C39.6039 55.2488 37.9639 55.3257 37.3349 55.7437Z" fill="#79889A"/>
</svg>
