<svg width="54" height="79" viewBox="0 0 54 79" fill="none" xmlns="http://www.w3.org/2000/svg">
<path d="M24.979 5.50378C24.086 5.50378 23.351 4.39078 23.163 2.75378C22.905 0.514784 23.242 0.00378418 24.979 0.00378418C26.716 0.00378418 27.0531 0.514784 26.7951 2.75378C26.6071 4.39078 25.872 5.50378 24.979 5.50378Z" fill="#79889A"/>
<path d="M37.8121 10.2368C37.2451 9.66979 37.08 8.25978 37.447 7.10478C38.434 3.99378 41.979 4.33078 41.979 7.53478C41.979 10.2798 39.4771 11.9018 37.8121 10.2368Z" fill="#79889A"/>
<path d="M10.931 10.0038C8.82604 10.0038 7.57305 8.46978 8.47905 7.00378C9.18505 5.86178 10.1671 5.75478 12.3341 6.58678C14.3491 7.35978 13.263 10.0038 10.931 10.0038Z" fill="#79889A"/>
<path d="M9.65706 33.4338C7.70006 32.6828 7.40605 29.4018 9.22905 28.6658C11.6 27.7098 13.044 28.0088 13.647 29.5818C14.45 31.6728 11.7811 34.2488 9.65706 33.4338Z" fill="#79889A"/>
<path d="M39.979 33.5038C37.979 33.5038 37.414 32.9388 37.155 30.6798C36.861 28.1118 37.087 27.8858 39.655 28.1798C41.914 28.4388 42.479 29.0038 42.479 31.0038C42.479 33.0038 41.979 33.5038 39.979 33.5038Z" fill="#79889A"/>
<path d="M22.979 37.6708C22.979 36.3868 23.279 35.0368 23.646 34.6708C25.305 33.0108 26.979 34.1828 26.979 37.0038C26.979 39.3368 26.535 40.0038 24.979 40.0038C23.55 40.0038 22.979 39.3368 22.979 37.6708Z" fill="#79889A"/>
<path d="M1.72905 48.7928C3.46505 47.2838 12.177 44.3768 16.979 43.7038C23.868 42.7388 34.935 43.7688 41.116 45.9508C47.95 48.3638 51.3411 51.5218 48.8211 53.1278C48.0831 53.5978 47.029 53.7888 46.479 53.5528C35.041 48.6308 33.015 48.0498 27.216 48.0278C21.131 48.0048 9.44306 50.6148 5.01106 52.9868C0.766061 55.2588 -1.85595 51.9088 1.72905 48.7928Z" fill="#79889A"/>
<path d="M39.533 78.0908C38.642 76.6498 38.473 63.6318 39.327 62.2498C40.556 60.2618 42.566 60.7648 48.46 64.5348C51.711 66.6138 53.979 68.7858 53.979 69.8188C53.979 70.8558 51.631 73.0868 48.229 75.2828C42.321 79.0958 40.514 79.6788 39.533 78.0908Z" fill="#79889A"/>
<path fill-rule="evenodd" clip-rule="evenodd" d="M20.1611 9.90978C18.3711 10.8348 16.0251 13.0438 14.9461 14.8178C13.2701 17.5738 12.584 17.9488 10.232 17.3958C5.76404 16.3438 5.47905 16.4098 5.47905 18.5038C5.47905 19.9158 6.06705 20.4338 7.47905 20.2668C11.39 19.8028 13.601 20.9878 15.241 24.4278C17.27 28.6828 21.883 31.3048 25.72 30.3848C30.695 29.1918 33.6771 27.1478 34.9591 24.0508C36.0941 21.3108 36.6631 21.0038 40.6001 21.0038C44.3351 21.0038 44.979 20.7048 44.979 18.9728C44.979 16.2778 42.4361 15.4208 39.3471 17.0748C37.2271 18.2088 36.7101 18.1908 35.9291 16.9578C35.4231 16.1578 35.0031 14.9778 34.9941 14.3358C34.9751 12.8498 28.452 8.78078 25.586 8.46578C24.391 8.33478 21.9501 8.98478 20.1611 9.90978ZM27.7641 24.4518C32.3381 22.5288 33.1561 18.4128 29.5751 15.3328C28.0861 14.0518 26.1831 13.0038 25.3461 13.0038C22.9931 13.0038 17.686 18.7968 18.38 20.6078C18.71 21.4658 18.979 22.5368 18.979 22.9878C18.979 24.8488 24.5951 25.7848 27.7641 24.4518Z" fill="#79889A"/>
</svg>
