<svg width="51" height="73" viewBox="0 0 51 73" fill="none" xmlns="http://www.w3.org/2000/svg">
<path d="M0.217 62.4328C0.437 62.2128 3.28593 60.2638 6.54793 58.1008C9.80993 55.9388 12.917 54.2778 13.451 54.4108C16.047 55.0558 17.016 71.6688 14.514 72.6288C11.475 73.7948 -1.729 64.3788 0.217 62.4328Z" fill="#79889A"/>
<path fill-rule="evenodd" clip-rule="evenodd" d="M24.477 1.00678C24.136 1.55878 24.153 3.98278 24.515 6.39478C24.887 8.87678 24.6259 13.2218 23.9129 16.4068C22.8709 21.0628 21.8289 22.8058 17.8759 26.5028C15.2479 28.9608 11.272 31.7028 9.03902 32.5968C4.06202 34.5878 3.86796 36.5378 8.22896 40.7508C15.549 47.8218 26.4049 49.9128 34.7719 45.8618C41.7669 42.4758 45.546 37.9918 48.108 30.0358L50.375 22.9958L48.175 16.7498C44.924 7.52079 35.8989 0.00378418 28.0699 0.00378418C26.4349 0.00378418 24.818 0.454783 24.477 1.00678ZM43.979 22.9638C43.979 17.5128 39.485 9.83378 34.911 7.46878C30.781 5.33278 29.979 5.62778 29.979 9.28578C29.979 18.9738 24.775 29.0538 17.352 33.7438C14.949 35.2618 12.9819 37.0888 12.9809 37.8048C12.9759 41.3808 26.9099 43.3298 33.2609 40.6418C39.3069 38.0828 43.979 30.3768 43.979 22.9638Z" fill="#79889A"/>
</svg>
