<svg width="56" height="76" viewBox="0 0 56 76" fill="none" xmlns="http://www.w3.org/2000/svg">
<path d="M29.7322 7.81274C27.7352 8.19774 25.6722 3.96675 26.6342 1.45975C26.9782 0.562748 28.1372 0.0267454 29.3562 0.200745C31.0562 0.443745 31.4792 1.19875 31.4792 3.98975C31.4792 6.51275 30.9962 7.56974 29.7322 7.81274Z" fill="#79889A"/>
<path d="M14.1012 15.0037C11.8062 15.0037 10.3602 13.3698 9.45117 9.74775C8.89317 7.52575 9.10117 7.00375 10.5422 7.00375C13.1402 7.00375 15.9792 9.95675 15.9792 12.6587C15.9792 14.2857 15.4042 15.0037 14.1012 15.0037Z" fill="#79889A"/>
<path d="M42.0322 13.5677C40.7082 11.9727 41.9662 8.57675 44.2182 7.66975C48.0932 6.10875 49.6462 10.1937 46.4082 13.4327C44.4632 15.3767 43.5572 15.4058 42.0322 13.5677Z" fill="#79889A"/>
<path d="M8.03716 29.4847C3.83916 30.8177 -0.00482917 27.3207 2.69317 24.6227C3.08617 24.2307 4.77317 24.0427 6.44317 24.2067C10.2022 24.5747 11.3662 28.4287 8.03716 29.4847Z" fill="#79889A"/>
<path d="M50.5802 30.0037C48.3092 30.0037 46.3842 25.9957 48.1262 24.8917C50.8692 23.1537 55.9792 24.2497 55.9792 26.5757C55.9792 28.0817 52.9522 30.0037 50.5802 30.0037Z" fill="#79889A"/>
<path d="M9.91619 45.9247C8.78919 44.1277 9.69816 40.8837 11.7902 39.2407C14.0242 37.4847 15.4242 38.1947 15.7892 41.2687C16.1822 44.5717 11.4312 48.3377 9.91619 45.9247Z" fill="#79889A"/>
<path d="M44.7172 45.7537C43.4862 44.9417 42.3372 43.0908 42.1632 41.6408C41.8942 39.3988 42.2282 39.0037 44.3942 39.0037C46.2762 39.0037 47.1042 39.6558 47.5682 41.5018C47.9132 42.8758 47.9162 44.7267 47.5752 45.6157C47.0212 47.0577 46.7142 47.0727 44.7172 45.7537Z" fill="#79889A"/>
<path d="M28.3362 52.9888C26.7852 53.0088 25.7972 50.1528 26.5422 47.8048C27.4292 45.0098 31.3832 45.8238 31.8162 48.8908C32.1442 51.2108 30.6612 52.9578 28.3362 52.9888Z" fill="#79889A"/>
<path d="M0.261164 67.3777C-0.119836 66.2067 8.56617 59.4857 12.3262 58.0397C15.8942 56.6687 16.2992 57.9297 16.0902 69.7537C15.9872 75.5527 15.8172 75.9997 13.7292 75.9497C11.3132 75.8917 0.867164 69.2427 0.261164 67.3777Z" fill="#79889A"/>
<path fill-rule="evenodd" clip-rule="evenodd" d="M21.8772 15.2847C20.0082 16.5387 17.5912 19.2107 16.5052 21.2217C14.7332 24.5017 14.6592 25.3727 15.7772 29.6907C17.1972 35.1747 22.5812 41.0068 26.2142 40.9978C30.7992 40.9868 36.4392 38.7237 39.1712 35.7977C44.2652 30.3447 42.4202 19.2937 35.7262 15.1557C31.2112 12.3657 26.1552 12.4127 21.8772 15.2847ZM31.4472 35.6007C36.5192 34.3277 38.8822 26.5577 35.6832 21.6747C33.9612 19.0467 29.4092 17.0137 26.9792 17.7867C24.6602 18.5257 21.9222 21.2127 20.3072 24.3367C18.9492 26.9627 19.0132 27.4297 21.1592 30.5687C23.8612 34.5207 27.8932 36.4927 31.4472 35.6007Z" fill="#79889A"/>
</svg>
