<svg width="57" height="76" viewBox="0 0 57 76" fill="none" xmlns="http://www.w3.org/2000/svg">
<path d="M29.454 5.64578C27.092 7.37278 25.979 6.50879 25.979 2.94479C25.979 0.704786 26.44 0.00378418 27.912 0.00378418C30.651 0.00378418 31.737 3.97578 29.454 5.64578Z" fill="#79889A"/>
<path d="M12.0139 14.0038C10.1439 14.0038 7.97897 11.3558 7.97897 9.06979C7.97897 7.62479 11.292 7.71678 12.779 9.20378C14.695 11.1198 14.2359 14.0038 12.0139 14.0038Z" fill="#79889A"/>
<path d="M42.9689 13.3938C42.4609 12.8858 42.3069 11.4648 42.6279 10.2368C43.3549 7.45779 46.979 7.16178 46.979 9.88178C46.979 12.2538 44.2339 14.6588 42.9689 13.3938Z" fill="#79889A"/>
<path d="M29.453 43.7708C16.376 43.7018 11.788 42.7398 13.249 40.3768C14.097 39.0038 41.673 39.2978 43.069 40.6938C45.563 43.1878 42.67 43.8408 29.453 43.7708Z" fill="#79889A"/>
<path d="M27.979 52.5038C24.884 52.5038 24.442 52.1778 24.156 49.6888C23.847 46.9928 23.994 46.8878 27.656 47.1888C30.983 47.4628 31.479 47.8278 31.479 50.0038C31.479 52.1938 31.046 52.5038 27.979 52.5038Z" fill="#79889A"/>
<path d="M4.72897 62.1308C6.79197 61.0778 9.336 59.2688 10.384 58.1098C14.557 53.4968 15.979 55.7508 15.979 66.9788C15.979 72.6218 15.6039 74.9338 14.6259 75.3088C13.8819 75.5948 10.5069 74.0788 7.12595 71.9418C-0.264052 67.2688 -0.826025 64.9658 4.72897 62.1308Z" fill="#79889A"/>
<path fill-rule="evenodd" clip-rule="evenodd" d="M23.604 12.4808C17.569 14.6198 12.979 19.6288 12.979 24.0778C12.979 28.5598 11.85 29.5528 5.75199 30.4358C0.710985 31.1648 -0.946029 32.4788 0.874971 34.2998C2.24297 35.6678 46.559 36.0888 52.229 34.7878C58.385 33.3748 57.017 31.2728 49.215 30.1568C44.762 29.5198 44.5089 29.3078 43.6409 25.4968C42.0029 18.3068 37.558 13.9688 29.479 11.6758C28.379 11.3638 25.735 11.7258 23.604 12.4808ZM37.729 29.6498C40.039 28.0038 39.0869 23.9118 35.5789 20.4038C32.8669 17.6918 31.4 17.0108 28.329 17.0388C23.696 17.0818 20.166 18.8808 18.375 22.1138C14.98 28.2378 17.447 30.3108 28.285 30.4418C32.792 30.4958 37.042 30.1398 37.729 29.6498Z" fill="#79889A"/>
</svg>
