<svg width="53" height="80" viewBox="0 0 53 80" fill="none" xmlns="http://www.w3.org/2000/svg">
<path d="M29.479 2.00376C29.479 4.17276 25.578 3.87376 25.154 1.67276C24.88 0.252758 25.3261 -0.084242 27.1401 0.172758C28.4261 0.354758 29.479 1.17876 29.479 2.00376Z" fill="#79889A"/>
<path d="M38.979 8.73976C38.979 7.41876 39.279 6.03676 39.646 5.67076C40.012 5.30376 41.167 5.00376 42.212 5.00376C45.151 5.00376 44.24 10.3958 41.229 10.8238C39.431 11.0788 38.979 10.6598 38.979 8.73976Z" fill="#79889A"/>
<path d="M13.049 11.0038C11.492 11.0038 10.979 10.3658 10.979 8.43076C10.979 5.14776 14.324 5.43976 14.799 8.76376C15.041 10.4648 14.62 11.0038 13.049 11.0038Z" fill="#79889A"/>
<path d="M11.281 21.2108C8.39504 21.9598 6.97904 21.0198 6.97904 18.3538C6.97904 16.2348 7.38204 15.9178 9.72904 16.1878C13.026 16.5668 14.225 20.4468 11.281 21.2108Z" fill="#79889A"/>
<path d="M44.479 21.1698C41.706 20.7078 40.802 19.6278 41.553 17.6708C41.91 16.7398 43.279 16.0038 44.652 16.0038C46.745 16.0038 47.0651 16.4138 46.7951 18.7538C46.5521 20.8728 46.02 21.4268 44.479 21.1698Z" fill="#79889A"/>
<path d="M9.97904 31.6708C9.97904 30.3868 10.279 29.0368 10.646 28.6708C11.869 27.4468 15.034 27.9848 15.622 29.5168C16.375 31.4788 14.256 34.0038 11.857 34.0038C10.556 34.0038 9.97904 33.2868 9.97904 31.6708Z" fill="#79889A"/>
<path d="M41.596 34.0038C39.265 34.0038 37.385 30.7728 38.586 28.8298C38.867 28.3758 40.195 28.0038 41.538 28.0038C43.584 28.0038 43.979 28.4898 43.979 31.0038C43.979 33.4978 43.577 34.0038 41.596 34.0038Z" fill="#79889A"/>
<path d="M27.608 40.0038C25.663 40.0038 24.64 38.3288 25.391 36.3728C26.205 34.2508 28.411 35.1948 28.799 37.8318C29.006 39.2438 28.589 40.0038 27.608 40.0038Z" fill="#79889A"/>
<path d="M1.97904 52.1188C1.97904 48.5368 10.091 45.0788 20.979 44.0198C24.554 43.6718 29.896 43.5528 32.849 43.7548C42.301 44.4008 54.252 50.1348 52.398 53.1348C51.581 54.4568 49.101 53.8868 41.479 50.6218C33.738 47.3058 23.176 47.0818 13.627 50.0308C10.017 51.1458 6.79304 52.4958 6.46204 53.0308C5.36404 54.8078 1.97904 54.1198 1.97904 52.1188Z" fill="#79889A"/>
<path d="M3.83734e-05 69.9337C-0.0119616 69.0697 2.79204 66.5208 6.22904 64.2698C9.66704 62.0178 12.993 60.1368 13.622 60.0898C15.42 59.9548 15.979 62.5608 15.979 71.0858C15.979 78.4588 15.835 79.0038 13.883 79.0038C10.972 79.0038 0.0250384 71.8517 3.83734e-05 69.9337Z" fill="#79889A"/>
<path fill-rule="evenodd" clip-rule="evenodd" d="M20.66 11.2688C17.29 14.1248 16.821 15.0698 16.66 19.3308C16.494 23.7548 16.8 24.4518 20.338 27.6938C23.658 30.7368 24.685 31.1508 27.694 30.6628C32.537 29.8768 35.382 27.7818 37.409 23.5098C38.962 20.2368 38.9901 19.4918 37.6881 16.1848C36.1671 12.3258 30.27 8.03776 26.479 8.03476C25.379 8.03376 22.761 9.48976 20.66 11.2688ZM33.358 21.4588C34.004 19.7738 32.443 16.0128 30.579 14.7688C28.302 13.2478 23.072 13.9618 22.014 15.9378C20.625 18.5338 20.705 22.3298 22.179 23.8038C24.704 26.3288 32.083 24.7808 33.358 21.4588Z" fill="#79889A"/>
</svg>
