<svg width="26" height="24" viewBox="0 0 26 24" fill="none" xmlns="http://www.w3.org/2000/svg">
<path fill-rule="evenodd" clip-rule="evenodd" d="M4.126 3.5C5.8335 3.5 6.4485 3.2055 7.782 1.75C9.3085 0.0835 9.545 0 12.735 0C15.9355 0 16.1545 0.0785 17.6345 1.75C18.88 3.1565 19.548 3.5 21.0365 3.5C22.1145 3.5 23.383 3.89953 24.0695 4.45453C25.1895 5.36053 25.2585 5.76102 25.415 12.262C25.4258 12.7096 25.4369 13.1393 25.4476 13.552C25.5705 18.301 25.6348 20.7868 24.4249 22.0863C23.096 23.5135 20.23 23.5096 14.2161 23.5013C13.7399 23.5007 13.244 23.5 12.7275 23.5C2.487 23.5 2.4505 23.496 1.2275 22.2725C0.0340009 21.0795 0 20.839 0 13.59C0 6.80503 0.0930009 6.0165 1.0365 4.8175C1.855 3.7765 2.503 3.5 4.126 3.5ZM16.5 3.75C17.497 5.3635 17.772 5.5 20.023 5.5C21.9255 5.5 22.579 5.71348 22.9825 6.46698C23.6555 7.72498 23.6555 19.275 22.9825 20.533C22.498 21.4375 21.844 21.5 12.8325 21.5C6.007 21.5 3.025 21.325 2.6 20.9C1.7655 20.0655 1.7655 6.93448 2.6 6.09998C2.93 5.76998 4.156 5.5 5.3245 5.5C7.165 5.5 7.6275 5.266 8.784 3.75C10.0135 2.138 10.3275 2 12.7685 2C15.2575 2 15.484 2.106 16.5 3.75ZM7 13.0325C7 10.68 8.0465 8.7935 9.9465 7.7215C11.846 6.6495 14.8125 7.13299 16.5495 8.79749C20.4085 12.4945 17.7965 18.493 12.325 18.498C9.517 18.501 7 15.917 7 13.0325ZM16.0115 11.5275C15.693 10.7585 14.8745 9.8755 14.1925 9.565C12.658 8.8655 12.539 8.86851 11.0085 9.64301C8.38 10.973 8.533 14.853 11.263 16.097C14.137 17.4065 17.2185 14.4415 16.0115 11.5275Z" fill="black"/>
</svg>
