<svg width="30" height="26" viewBox="0 0 30 26" fill="none" xmlns="http://www.w3.org/2000/svg">
<path d="M16.8833 19.7368C14.9773 21.0588 14.3153 21.2343 11.3833 21.1933C9.55025 21.1678 7.48774 21.0857 6.80024 21.0107C6.11274 20.9362 4.40378 21.0403 3.00178 21.2428C0.846281 21.5543 0.403316 21.4794 0.125316 20.7554C-0.0551839 20.2849 -0.0386849 19.6388 0.161815 19.3198M16.8833 19.7368C19.5428 17.8918 21.8002 13.7612 21.8002 10.7397C21.8002 7.73473 19.5422 3.58686 16.9147 1.76586C13.8277 -0.373643 9.55426 -0.586222 5.98176 1.22228C4.38676 2.02978 2.87076 3.30633 1.98176 4.58983M16.8833 19.7368L16.3132 18.9152M16.8833 19.7368L16.3133 18.9151C16.3133 18.9151 16.3133 18.9151 16.3132 18.9152M1.98176 4.58983C0.601761 6.58283 0.549768 6.87323 0.538768 12.6982C0.532268 16.0212 0.362815 19.0008 0.161815 19.3198M1.98176 4.58983L2.80383 5.15922M1.98176 4.58983L2.80391 5.15911M0.161815 19.3198L1.00847 19.852M0.161815 19.3198L1.00787 19.8529C1.00807 19.8526 1.00827 19.8523 1.00847 19.852M1.00847 19.852C1.01358 19.8438 1.01854 19.8357 1.02335 19.8276M1.00847 19.852C1.02156 19.8311 1.02624 19.819 1.0262 19.819C1.02618 19.819 1.0251 19.8217 1.02335 19.8276M1.02335 19.8276C1.09691 19.7038 1.13603 19.5851 1.15536 19.5219C1.1805 19.4397 1.20004 19.3555 1.21574 19.2776C1.24726 19.1212 1.27413 18.9355 1.29775 18.7348C1.34534 18.3302 1.38694 17.8016 1.42161 17.1923C1.49116 15.9703 1.53549 14.3759 1.53877 12.7002L1.53877 12.7001C1.54435 9.7443 1.56374 8.32426 1.73141 7.38228C1.87866 6.55506 2.1301 6.13223 2.80383 5.15922M1.02335 19.8276C1.02212 19.8317 1.02056 19.8374 1.01881 19.8447C1.01035 19.8802 1.00217 19.9352 1.00037 20.0062C0.996559 20.1558 1.02241 20.3017 1.05886 20.3969L2.80383 5.15922M2.80383 5.15922L2.80391 5.15911M2.80391 5.15911C3.58532 4.03099 4.96523 2.85777 6.43341 2.11447C9.70517 0.458218 13.5837 0.673928 16.3451 2.58776L16.9137 1.76736L16.3451 2.58776C17.496 3.38538 18.6231 4.74137 19.4645 6.28693C20.3083 7.83682 20.8002 9.45846 20.8002 10.7397C20.8002 12.0294 20.3083 13.6506 19.4616 15.1999C18.6174 16.7445 17.4825 18.104 16.3132 18.9152M2.80391 5.15911L1.06269 20.4067M16.3132 18.9152C15.3778 19.564 14.855 19.8525 14.262 20.0095C13.641 20.174 12.8712 20.2141 11.3972 20.1934H11.3972C9.5606 20.1679 7.54275 20.0858 6.90869 20.0166L6.90797 20.0165C6.08922 19.9278 4.2766 20.0483 2.85883 20.2531L2.85875 20.2531C1.79534 20.4067 1.3061 20.4375 1.06269 20.4067M1.06269 20.4067C1.06148 20.4037 1.06024 20.4005 1.05897 20.3972M1.06269 20.4067L1.05897 20.3972M1.06269 20.4067C1.0834 20.4593 1.09538 20.4783 1.09535 20.4784C1.09532 20.4784 1.085 20.4621 1.06181 20.441C1.04748 20.428 1.0341 20.4182 1.02284 20.411L0.12535 20.7553L1.02254 20.4108L1.06269 20.4067ZM1.06269 20.4067C1.05545 20.4058 1.04842 20.4049 1.0416 20.4038M1.06269 20.4067L1.0416 20.4038M1.05897 20.3972L1.0416 20.4038M1.05897 20.3972L1.0416 20.4038M23.8198 16.727L23.8197 16.7271C22.748 18.7916 21.0247 20.6983 19.1623 22.0956C17.8231 23.1002 16.3379 23.8963 14.9033 24.2615C15.5092 24.5012 16.2318 24.6945 17.0193 24.8141C18.5641 25.0488 20.1213 24.9632 21.1739 24.5632L23.8198 16.727ZM23.8198 16.727C24.466 15.4819 24.848 13.6335 24.9876 11.8224C25.0978 10.3938 25.0649 8.88783 24.8465 7.59048C25.992 8.57613 26.954 10.0408 27.5677 11.7053C28.3694 13.8798 28.5052 16.2017 27.8395 17.9525C27.3576 19.2201 27.4258 20.5473 27.8629 22.3695L27.8629 22.3695C28.1161 23.4248 28.1923 23.9248 28.1767 24.2189C28.1706 24.3345 28.1506 24.3837 28.1365 24.412C28.1179 24.4491 28.0765 24.5135 27.9584 24.6315L27.9578 24.632M23.8198 16.727L27.9578 24.632M27.9578 24.632C27.8481 24.7419 27.7839 24.7831 27.742 24.8036C27.7054 24.8215 27.6427 24.845 27.5091 24.8536C27.1873 24.8742 26.6529 24.804 25.576 24.573M27.9578 24.632L25.576 24.573M25.576 24.573C23.8233 24.1968 22.3218 24.1264 21.1744 24.5631L25.576 24.573ZM24.6224 6.56996C24.5673 6.3725 24.5272 6.22142 24.4995 6.10551C28.1387 8.29491 30.2878 14.3267 28.7742 18.3078L24.6224 6.56996Z" stroke="#7C8699" stroke-width="2"/>
</svg>
