<svg width="24" height="24" viewBox="0 0 24 24" fill="none" xmlns="http://www.w3.org/2000/svg">
<path fill-rule="evenodd" clip-rule="evenodd" d="M9.06776 8.26735C13.0998 4.18785 16.8488 0.658349 17.3988 0.423849C18.8528 -0.19565 19.5308 -0.152151 21.1033 0.660849C22.8213 1.54935 23.8867 3.91735 23.4147 5.79985C23.0762 7.15135 10.4362 20.4463 8.46825 21.5208C6.74525 22.4618 0.498757 23.9843 0.079757 23.5653C-0.148743 23.3368 0.130759 21.4703 0.700759 19.4173L1.73677 15.6843L9.06776 8.26735ZM12.5798 14.7533C7.91126 19.4353 6.62826 20.4468 4.76076 20.9168C3.53226 21.2263 2.45327 21.4058 2.36327 21.3158C2.27327 21.2258 2.44176 20.1468 2.73726 18.9183C3.18776 17.0468 4.17575 15.7718 8.82225 11.0658L14.3698 5.44735L16.2673 7.29985L18.1647 9.15285L12.5798 14.7533ZM20.6283 6.70285C21.8948 5.55685 21.9408 3.85335 20.7343 2.76185C19.5358 1.67685 18.5238 1.71685 17.0793 2.90635L15.8988 3.87835L17.7533 5.75235C19.5738 7.59185 19.6263 7.60935 20.6283 6.70285Z" fill="#213550"/>
</svg>
