<svg width="26" height="13" viewBox="0 0 26 13" fill="none" xmlns="http://www.w3.org/2000/svg">
<path fill-rule="evenodd" clip-rule="evenodd" d="M4.74302 1.59961C5.05752 1.16961 6.19649 0.647598 7.27399 0.440098C12.193 -0.507902 20.1735 0.163598 21.2345 1.6146C21.5425 2.0366 22.405 2.53459 23.1505 2.72159C25.525 3.31759 26.703 6.16811 25.502 8.41211C25.2375 8.90611 24.2815 9.61209 23.377 9.98059C22.473 10.3496 21.4945 10.9651 21.2035 11.3491C19.609 13.4501 6.27801 13.3946 4.73151 11.2806C4.42351 10.8586 3.561 10.3606 2.8155 10.1736C0.259995 9.53212 -0.840999 6.34659 0.721501 4.11609C1.1275 3.53609 2.07 2.90859 2.8155 2.72159C3.561 2.53459 4.42852 2.02961 4.74302 1.59961ZM4.48301 6.44761C4.48301 8.04011 4.29951 8.44761 3.58301 8.44761C3.08801 8.44761 2.41301 8.1776 2.08301 7.8476C0.820513 6.5851 1.76351 4.44761 3.58301 4.44761C4.29951 4.44761 4.48301 4.85511 4.48301 6.44761ZM12.983 4.94761C17.983 4.94761 18.983 4.82261 18.983 4.19761C18.983 3.57261 17.983 3.44761 12.983 3.44761C7.98301 3.44761 6.98301 3.57261 6.98301 4.19761C6.98301 4.82261 7.98301 4.94761 12.983 4.94761ZM18.859 8.57261C18.7125 9.01361 16.936 9.2391 12.817 9.3386C7.84952 9.4586 6.98301 9.3656 6.98301 8.7136C6.98301 8.0681 7.93201 7.94761 13.0245 7.94761C17.6355 7.94761 19.017 8.0956 18.859 8.57261ZM22.557 8.35761C24.0515 8.13511 24.887 6.70111 24.1795 5.57261C23.8775 5.09161 23.1475 4.6256 22.557 4.5376C21.6055 4.3961 21.483 4.61411 21.483 6.44761C21.483 8.28111 21.6055 8.49911 22.557 8.35761Z" fill="#2859B0"/>
</svg>
