<svg width="17" height="22" viewBox="0 0 17 22" fill="none" xmlns="http://www.w3.org/2000/svg">
<path d="M10.3064 3.40621C9.07336 3.23121 8.50786 2.04273 9.02136 0.704731C9.42036 -0.335769 11.7019 -0.189278 12.2924 0.914722C12.9954 2.22822 11.8784 3.62921 10.3064 3.40621Z" fill="#2859B0"/>
<path d="M2.92538 9.09472C2.77138 6.96722 2.77438 6.96324 5.42538 5.72924C9.05988 4.03724 10.0244 4.12173 11.3389 6.24923C11.9389 7.22023 13.3224 8.46973 14.4124 9.02623C15.5029 9.58223 16.3029 10.3067 16.1904 10.6357C15.9374 11.3767 13.9514 11.1402 12.4719 10.1927C10.9514 9.21924 10.4944 9.29921 10.1544 10.5987C9.95139 11.3757 10.2369 12.1042 11.0959 13.0012C12.1734 14.1257 12.3294 14.7427 12.3294 17.8862C12.3294 21.1502 12.2369 21.4837 11.3294 21.4837C10.4469 21.4837 10.3294 21.1502 10.3294 18.6482C10.3294 16.7112 10.0669 15.5227 9.50186 14.8982C8.29386 13.5632 7.93087 13.7507 7.31787 16.0257C6.95687 17.3672 6.54338 17.9812 6.11288 17.8157C5.75238 17.6772 4.45339 17.4137 3.22589 17.2297C0.457389 16.8142 -0.288637 16.3732 0.0928632 15.3782C0.331363 14.7572 0.758362 14.6882 2.23486 15.0312C5.45086 15.7787 5.27736 16.0257 6.60586 8.80623C6.94636 6.95373 6.91887 6.90072 5.89487 7.44872C5.11587 7.86572 4.82937 8.49423 4.82937 9.78823C4.82937 11.2027 4.65387 11.5237 3.95437 11.3912C3.31537 11.2697 3.03788 10.6507 2.92538 9.09472Z" fill="#2859B0"/>
</svg>
