<svg width="19" height="21" viewBox="0 0 19 21" fill="none" xmlns="http://www.w3.org/2000/svg">
<path fill-rule="evenodd" clip-rule="evenodd" d="M5.6472 0.37225C0.380196 1.96025 -1.5843 7.50823 1.3957 12.3782C2.1687 13.6412 2.4717 14.9627 2.4842 17.1282L2.5017 20.1282L7.37921 20.2712C12.1757 20.4122 12.2662 20.3932 12.8342 19.1462C13.2072 18.3277 13.8172 17.8782 14.5537 17.8782C16.0642 17.8782 17.2517 16.0927 17.2517 13.8202C17.2517 12.6502 17.5237 11.8807 18.0017 11.6972C19.0392 11.2992 18.9392 10.0242 17.7517 8.51471C17.2017 7.81521 16.7507 6.76723 16.7497 6.18573C16.7427 2.09423 10.6022 -1.12125 5.6472 0.37225ZM15.2357 6.30121C15.2152 4.79821 14.4162 3.76823 12.2427 2.44323C7.4727 -0.464266 0.483704 3.40171 1.4327 8.42321C1.6097 9.36121 2.19871 10.8557 2.74121 11.7452C3.62471 13.1942 3.8632 13.3112 5.0332 12.8662C6.0447 12.4817 6.8497 12.5957 8.6087 13.3742C9.8572 13.9262 11.4752 14.3782 12.2042 14.3782C13.9007 14.3782 15.7517 13.0873 15.7517 11.9033C15.7517 11.3983 16.1052 10.8497 16.5372 10.6837C17.2237 10.4202 17.1917 10.1987 16.2872 8.92822C15.7177 8.12822 15.2447 6.94621 15.2357 6.30121Z" fill="#2859B0"/>
</svg>
