<svg width="24" height="24" viewBox="0 0 24 24" fill="none" xmlns="http://www.w3.org/2000/svg">
<path fill-rule="evenodd" clip-rule="evenodd" d="M2.68706 0.471716C0.267061 1.44822 0.00856364 2.57172 0.00856364 12.1097C0.00856364 12.7952 0.00615765 13.4394 0.00389626 14.045C-0.0135901 18.7274 -0.0224299 21.0945 1.15667 22.287C2.36212 23.5061 4.8092 23.4975 9.75806 23.4803C10.384 23.4781 11.05 23.4757 11.7586 23.4757C12.496 23.4757 13.1873 23.4784 13.8354 23.481C18.7028 23.4999 21.1319 23.5093 22.3394 22.2995C23.5423 21.0943 23.5328 18.6791 23.5138 13.8578C23.5113 13.2134 23.5086 12.526 23.5086 11.7928V2.56473L21.9701 1.27024C20.4461 -0.0122609 20.3556 -0.0237613 12.0951 0.00723867C7.51007 0.0247387 3.27656 0.233716 2.68706 0.471716ZM21.5086 11.9007C21.5086 4.79523 21.3896 3.49922 20.6836 2.91172C20.0781 2.40822 17.8491 2.19822 12.3086 2.12272C8.15607 2.06572 4.42106 2.14827 4.00856 2.30527C2.22506 2.98427 2.00856 4.05125 2.00856 12.1603V20.1532L6.19757 16.0642C11.7161 10.6782 11.9336 10.6788 17.3731 16.0898L21.5086 20.2038V11.9007ZM14.3371 5.50327C12.7896 6.72027 12.6156 8.46473 13.9231 9.64823C16.5656 12.0397 20.5681 8.65074 18.3836 5.87174C17.3116 4.50824 15.7796 4.36877 14.3371 5.50327ZM17.0086 7.44626C17.0086 8.12126 16.0971 8.58924 15.5006 8.22074C15.2211 8.04774 15.1216 7.69726 15.2801 7.44126C15.6551 6.83376 17.0086 6.83776 17.0086 7.44626ZM19.7336 21.4757L16.0086 17.7257C13.9601 15.6632 12.0476 13.9757 11.7586 13.9757C11.4696 13.9757 9.55706 15.6632 7.50856 17.7257L3.78357 21.4757H11.7586H19.7336Z" fill="black"/>
</svg>
