<svg width="26" height="28" viewBox="0 0 26 28" fill="none" xmlns="http://www.w3.org/2000/svg">
<path d="M24.3694 6.57764C23.8043 5.22568 22.7206 4.2486 21.0055 3.69732C20.9971 3.90897 20.9937 4.17525 20.9925 4.51399V4.51404C20.9879 5.80997 20.8445 6.92948 20.4511 7.69996C20.4242 7.7527 20.3953 7.80532 20.3643 7.85742C21.2425 7.83898 22.0167 7.81644 22.6865 7.78985C23.5847 7.7542 24.2799 7.71181 24.7801 7.66426C24.6678 7.33105 24.5248 6.94958 24.3694 6.57764ZM24.3694 6.57764L25.292 6.19201L24.3694 6.57764ZM6.16045 7.899C4.24783 7.88107 2.94148 7.84795 2.04922 7.78788C1.57649 7.75606 1.26197 7.71827 1.05654 7.68349C1.09569 7.53135 1.15789 7.3512 1.24937 7.1453C1.42433 6.75152 1.68102 6.32051 1.99421 5.8995C2.64004 5.03135 3.42079 4.34396 4.03357 4.07765L4.03381 4.07755C4.67326 3.79945 5.11151 3.62794 5.42201 3.5436C5.43544 3.53996 5.4483 3.53657 5.46062 3.53342C5.49043 3.75145 5.50579 4.07282 5.50751 4.54759L6.16045 7.899ZM6.16045 7.899C6.12135 7.83604 6.08537 7.77214 6.0523 7.70804C5.65679 6.9414 5.51212 5.82964 5.50751 4.54763L6.16045 7.899ZM11.6274 14.0444C11.3368 14.3342 11.1997 14.7443 11.1317 14.9992C11.0498 15.3063 11 15.6597 11 16.0025C11 16.2764 11.0316 16.7418 11.3793 17.1451C11.7072 17.5253 12.164 17.672 12.5418 17.7486C13.2879 17.9001 14.5403 17.919 16.5155 17.919C18.3388 17.919 19.5666 17.8843 20.3768 17.7498C20.7853 17.6819 21.1777 17.5759 21.5105 17.3767C21.8819 17.1543 22.1307 16.8454 22.272 16.4771C22.6024 15.6168 22.2909 14.543 21.4832 14.0313L21.4828 14.031C21.3143 13.9243 21.1328 13.8627 21.0048 13.8251C20.8619 13.7831 20.705 13.7487 20.5456 13.7195C20.2261 13.6609 19.8395 13.6134 19.4211 13.5749C18.5812 13.4976 17.5491 13.4511 16.5364 13.4365C15.5244 13.422 14.5101 13.4392 13.7068 13.4933C13.308 13.5201 12.939 13.5575 12.6402 13.6097C12.4923 13.6355 12.3371 13.6691 12.1938 13.7157C12.0898 13.7495 11.8362 13.8361 11.6274 14.0444ZM11.6274 14.0444L12.3335 14.7525M11.6274 14.0444C11.6269 14.0449 11.6265 14.0453 11.626 14.0457L12.3335 14.7525M12.3335 14.7525C12.8275 14.258 20.1375 14.363 20.948 14.876L21.3385 16.1185C21.0885 16.7705 20.195 16.919 16.5155 16.919C12.47 16.919 12 16.8235 12 16.0025C12 15.498 12.15 14.9355 12.3335 14.7525ZM14.9001 21.1845L14.9 21.1849C14.8619 21.4531 14.7952 21.8603 14.5494 22.2243C14.2722 22.6348 13.8723 22.8513 13.4585 22.976C13.0697 23.0931 12.588 23.1534 12.0239 23.1955C11.4468 23.2385 10.7106 23.2668 9.78199 23.2965C7.67711 23.3639 6.11649 23.3073 5.1295 23.0013C4.63095 22.8468 4.0807 22.5699 3.77448 22.0182C3.45075 21.4349 3.54975 20.8253 3.72784 20.3613L14.9001 21.1845ZM14.9001 21.1845C14.9193 21.0493 14.9424 20.8785 14.9474 20.7105M14.9001 21.1845L14.9474 20.7105M14.9474 20.7105C14.9523 20.5416 14.9424 20.3065 14.8507 20.0588M14.9474 20.7105L14.8507 20.0588M14.8507 20.0588C14.6269 19.4539 14.1036 19.2094 13.6834 19.1018M14.8507 20.0588L13.6834 19.1018M13.6834 19.1018C13.2835 18.9993 12.7583 18.9609 12.1285 18.9412M13.6834 19.1018L12.1285 18.9412M12.1285 18.9412C11.478 18.9207 10.6226 18.919 9.519 18.919M12.1285 18.9412L9.519 18.919M9.519 18.919C7.68015 18.919 6.44428 18.9535 5.62999 19.0877M9.519 18.919L5.62999 19.0877M5.62999 19.0877C5.21963 19.1553 4.82591 19.261 4.49221 19.46M5.62999 19.0877L4.49221 19.46M4.49221 19.46C4.11934 19.6823 3.86967 19.9917 3.72793 20.3611L4.49221 19.46ZM10.0945 5.13417L10.1881 3.669H13.25H16.3119L16.4055 5.13417C16.4589 5.97073 16.5696 6.69737 16.7658 7.2695C16.8362 7.47473 16.9298 7.69513 17.057 7.90358C15.831 7.91384 14.4785 7.919 13 7.919C11.6814 7.919 10.4978 7.91821 9.43548 7.91578C9.5665 7.70375 9.66238 7.47874 9.73415 7.2695C9.9304 6.69737 10.0411 5.97073 10.0945 5.13417ZM25.5447 7.55436C25.5447 7.55443 25.5426 7.55518 25.5381 7.55651C25.5424 7.55496 25.5448 7.55428 25.5447 7.55436ZM21.0565 3.18331C21.0565 3.18331 21.0563 3.18419 21.0557 3.18587C21.0562 3.18413 21.0565 3.1833 21.0565 3.18331ZM5.40783 3.29084C5.40787 3.29076 5.40853 3.29212 5.40972 3.29513C5.4084 3.29242 5.4078 3.29092 5.40783 3.29084ZM1.83388 24.2491L1.83375 24.2488C1.18469 23.1846 1.00352 22.3041 1.002 17.2937V17.2937L1.00034 12.419H13H24.9997L24.998 17.2937V17.2937C24.9965 22.3041 24.8153 23.1846 24.1663 24.2488L24.1661 24.2491C23.7601 24.9152 23.4232 25.3552 23.0396 25.679C22.6692 25.9917 22.2041 26.2385 21.4843 26.4271C19.9666 26.8248 17.5332 26.919 13 26.919C8.46684 26.919 6.03338 26.8248 4.51571 26.4271C3.79593 26.2385 3.33077 25.9917 2.96038 25.679C2.57684 25.3552 2.23993 24.9152 1.83388 24.2491Z" stroke="#8992A3" stroke-width="2"/>
</svg>
